<svg xmlns="http://www.w3.org/2000/svg" width="360" height="220" viewBox="0 0 360 220">
  <rect width="100%" height="100%" fill="#ffffff"/>
  <g stroke="#222222" stroke-width="1">
    <line x1="40" y1="180" x2="330" y2="180"/>
    <line x1="40" y1="20" x2="40" y2="180"/>
  </g>
  <g stroke="#999999" stroke-width="1">
    <line x1="90" y1="180" x2="90" y2="175"/>
    <line x1="150" y1="180" x2="150" y2="175"/>
    <line x1="210" y1="180" x2="210" y2="175"/>
    <line x1="270" y1="180" x2="270" y2="175"/>
  </g>
  <g fill="#222222" font-family="Arial, sans-serif" font-size="12">
    <text x="34" y="16">HR</text>
    <text x="80" y="200">0.0</text>
    <text x="140" y="200">0.5</text>
    <text x="200" y="200">1.0</text>
    <text x="260" y="200">1.5</text>
    <text x="320" y="200">x1</text>
  </g>
  <path d="M40,175 C90,120 150,60 210,80 C260,110 300,150 330,170" fill="none" stroke="#1f5aa6" stroke-width="2"/>
  <circle cx="40" cy="175" r="2.5" fill="#1f5aa6"/>
  <circle cx="140" cy="92" r="2.5" fill="#1f5aa6"/>
  <circle cx="210" cy="80" r="2.5" fill="#1f5aa6"/>
  <circle cx="270" cy="120" r="2.5" fill="#1f5aa6"/>
  <circle cx="330" cy="170" r="2.5" fill="#1f5aa6"/>
</svg>
